<svg width="512" height="512" viewBox="0 0 512 512" fill="none" xmlns="http://www.w3.org/2000/svg">
<path d="M7.50479 200.944L227.163 72.4135C231.852 69.6678 237.648 69.6443 242.367 72.343C247.081 75.0455 249.991 80.0613 249.996 85.4959L250.04 143.532C250.304 143.596 250.51 143.648 250.652 143.688C256.141 145.219 261.975 146.904 269.007 148.994C291.815 155.769 315.244 164.555 342.739 176.641C366.6 187.129 389.945 200.666 412.124 216.875C427.974 228.457 442.886 241.814 456.445 256.573C493.341 296.728 513.556 350.05 511.906 402.868C511.617 412.121 510.577 421 509.597 428.467C508.623 435.889 502.38 441.492 494.894 441.66C494.779 441.663 494.665 441.664 494.552 441.664C487.212 441.664 480.9 436.396 479.617 429.135C475.535 406.055 469.022 387.094 459.709 371.168C448.069 351.268 432.248 334.561 413.962 322.85C398.246 312.784 381.644 305.061 363.205 299.232C341.698 292.432 317.982 288.17 290.705 286.201C279.699 285.405 267.842 285.006 253.387 284.94C252.949 284.94 252.013 284.948 250.794 284.964L250.755 339.694C250.751 345.096 247.873 350.09 243.201 352.801C238.527 355.514 232.764 355.537 228.07 352.861L7.6568 227.217C2.94752 224.533 0.030002 219.544 0.000345089 214.123C-0.0342547 208.705 2.82764 203.682 7.50479 200.944Z" fill="white"/>
</svg>
