<svg width="512" height="512" viewBox="0 0 512 512" fill="none" xmlns="http://www.w3.org/2000/svg">
<path d="M504.494 200.944L284.837 72.4135C280.147 69.6678 274.352 69.6443 269.633 72.343C264.919 75.0455 262.009 80.0613 262.004 85.4959L261.959 143.532C261.696 143.596 261.49 143.648 261.347 143.688C255.858 145.219 250.025 146.904 242.992 148.994C220.185 155.769 196.756 164.555 169.26 176.641C145.4 187.129 122.055 200.666 99.8757 216.875C84.0265 228.457 69.1141 241.814 55.5547 256.573C18.6591 296.728 -1.55579 350.05 0.0938738 402.868C0.383028 412.121 1.42349 421 2.4034 428.467C3.37714 435.889 9.61991 441.492 17.1058 441.66C17.2207 441.663 17.3356 441.664 17.4481 441.664C24.7882 441.664 31.1001 436.396 32.3828 429.135C36.4656 406.055 42.9777 387.094 52.2912 371.168C63.9315 351.268 79.7522 334.561 98.0382 322.85C113.754 312.784 130.356 305.061 148.795 299.232C170.302 292.432 194.018 288.17 221.295 286.201C232.301 285.405 244.158 285.006 258.613 284.94C259.05 284.94 259.987 284.948 261.205 284.964L261.245 339.694C261.249 345.096 264.127 350.09 268.799 352.801C273.472 355.514 279.236 355.537 283.93 352.861L504.342 227.217C509.052 224.533 511.969 219.544 511.999 214.123C512.033 208.705 509.171 203.682 504.494 200.944Z" fill="white"/>
</svg>
